#!OML:ASF I:\Actors\actors\Patient Classification 1\Patient 1\Session 1\Subject1.ASF
:FULLY-SPECIFIED
:DEGREES
151
root 0.0537304 17.493 8.21095 10.5525 1.44472 -8.28872
lowerback -2.17313 1.14984 4.0686
upperback -7.68695 1.72006 1.73168
thorax -6.73273 0.670977 -0.527095
lowerneck -3.37847 -8.00429 -4.37336
upperneck 11.6458 -11.943 11.5283
head 5.00858 -5.47108 3.56306
rclavicle 9.0447e-015 -3.97569e-016
rhumerus -45.2632 -32.3173 -63.5757
rradius 26.1091
rwrist 41.1855
rhand 11.9856 -35.5649
rfingers 7.12502
rthumb 37.0071 -61.6276
lclavicle 9.0447e-015 -3.97569e-016
lhumerus -46.8007 31.3102 66.5878
lradius 25.4373
lwrist -21.6411
lhand -14.9659 -7.99964
lfingers 7.12502
lthumb 11.1977 21.6815
rfemur -7.08992 22.5653 22.9887
rtibia 4.23879
rfoot -13.2042 -24.7607
rtoes 2.66762
lfemur 0.145445 -46.5847 -8.64636
ltibia -3.77208
lfoot -23.0849 53.4881
ltoes 13.3211
152
root 0.0541069 17.494 8.2086 10.4997 1.44198 -8.24135
lowerback -2.06786 1.14118 4.02783
upperback -7.62719 1.71104 1.72595
thorax -6.72967 0.669275 -0.512005
lowerneck -3.78556 -7.79804 -4.24009
upperneck 12.0009 -11.6861 11.3967
head 5.14991 -5.31925 3.50102
rclavicle 1.7344e-014 -3.93594e-014
rhumerus -44.9364 -32.3642 -63.8501
rradius 25.9942
rwrist 41.34
rhand 11.9951 -35.7062
rfingers 7.12502
rthumb 37.0161 -61.7665
lclavicle 1.7344e-014 -3.93594e-014
lhumerus -46.7884 31.3025 66.5752
lradius 25.2173
lwrist -21.9058
lhand -14.6836 -8.00607
lfingers 7.12502
lthumb 11.4699 21.6602
rfemur -7.12675 22.4754 22.9436
rtibia 4.40067
rfoot -13.2616 -24.6753
rtoes 2.60837
lfemur 0.173597 -46.5078 -8.73756
ltibia -3.73437
lfoot -22.9832 53.3884
ltoes 13.2821
153
root 0.0540157 17.494 8.20713 10.459 1.45232 -8.26208
lowerback -1.99665 1.12069 4.06276
upperback -7.56655 1.68671 1.74214
thorax -6.70599 0.656479 -0.514862
lowerneck -4.10776 -7.56434 -4.02561
upperneck 12.2217 -11.3755 11.2024
head 5.22385 -5.14936 3.41661
rclavicle -7.60351e-015 -1.66979e-014
rhumerus -44.5656 -32.4029 -64.1491
rradius 25.8617
rwrist 41.4989
rhand 12.0935 -35.6542
rfingers 7.12502
rthumb 37.1092 -61.6904
lclavicle -7.60351e-015 -1.66979e-014
lhumerus -46.7824 31.4066 66.4919
lradius 24.9292
lwrist -22.3396
lhand -14.4912 -8.00212
lfingers 7.12502
lthumb 11.6554 21.6537
rfemur -7.17148 22.3912 22.9795
rtibia 4.56013
rfoot -13.2942 -24.6135
rtoes 2.31051
lfemur 0.177498 -46.3809 -8.72548
ltibia -3.71073
lfoot -22.8103 53.2766
ltoes 13.0962
154
root 0.0536449 17.4932 8.20583 10.4157 1.47213 -8.36361
lowerback -1.92434 1.1021 4.1649
upperback -7.5279 1.66861 1.78119
thorax -6.70611 0.642928 -0.531531
lowerneck -4.32177 -7.33287 -3.77497
upperneck 12.3808 -11.0655 11.004
head 5.25956 -4.98478 3.33037
rclavicle -1.67476e-014 2.5842e-014
rhumerus -44.2647 -32.4581 -64.4301
rradius 25.7872
rwrist 41.6632
rhand 12.1317 -35.4933
rfingers 7.12502
rthumb 37.1453 -61.52
lclavicle -1.67476e-014 2.5842e-014
lhumerus -46.761 31.5192 66.3708
lradius 24.5223
lwrist -23.0123
lhand -14.4927 -8.01209
lfingers 7.12502
lthumb 11.654 21.6438
rfemur -7.21473 22.2667 23.1139
rtibia 4.7165
rfoot -13.2972 -24.5006
rtoes 2.07756
lfemur 0.193847 -46.2427 -8.61527
ltibia -3.71512
lfoot -22.566 53.1775
ltoes 12.9233
155
root 0.0538294 17.4936 8.20454 10.3659 1.46385 -8.41035
lowerback -1.82982 1.09861 4.22189
upperback -7.50977 1.67058 1.79045
thorax -6.74027 0.640233 -0.555421
lowerneck -4.54613 -7.11751 -3.54698
upperneck 12.6942 -10.7907 10.7875
head 5.34907 -4.83386 3.23781
rclavicle 2.21148e-014 -4.57205e-014
rhumerus -44.0315 -32.4572 -64.7758
rradius 25.8622
rwrist 41.7002
rhand 12.059 -35.4754
rfingers 7.12502
rthumb 37.0765 -61.52
lclavicle 2.21148e-014 -4.57205e-014
lhumerus -46.7935 31.7748 66.1048
lradius 24.0732
lwrist -24.1296
lhand -14.6459 -8.00107
lfingers 7.12502
lthumb 11.5063 21.6631
rfemur -7.26589 22.0458 23.1749
rtibia 4.88283
rfoot -13.2649 -24.2778
rtoes 1.87164
lfemur 0.295245 -46.2666 -8.63119
ltibia -3.73982
lfoot -22.6421 53.1959
ltoes 13.1504
156
root 0.0543489 17.4954 8.20405 10.3162 1.42236 -8.37564
lowerback -1.72112 1.09837 4.20205
upperback -7.51592 1.67544 1.76821
thorax -6.80906 0.641638 -0.569966
lowerneck -4.85176 -6.91633 -3.273
upperneck 13.2251 -10.5485 10.4714
head 5.51615 -4.6926 3.10011
rclavicle -9.88954e-015 -8.34896e-015
rhumerus -43.7614 -32.1944 -65.331
rradius 26.0527
rwrist 41.4643
rhand 12.1435 -35.6994
rfingers 7.12502
rthumb 37.1564 -61.7233
lclavicle -9.88954e-015 -8.34896e-015
lhumerus -47.071 32.618 65.3223
lradius 23.5773
lwrist -26.0708
lhand -14.7642 -8.14972
lfingers 7.12502
lthumb 11.3921 21.5208
rfemur -7.2999 21.8608 23.1363
rtibia 5.02322
rfoot -13.2554 -24.0747
rtoes 1.75904
lfemur 0.43534 -46.3643 -8.78283
ltibia -3.75158
lfoot -22.9121 53.2885
ltoes 13.2555
157
root 0.0545507 17.4969 8.20378 10.2868 1.38969 -8.33069
lowerback -1.64055 1.10126 4.17997
upperback -7.54537 1.68334 1.73987
thorax -6.88659 0.64413 -0.589323
lowerneck -5.14343 -6.75021 -2.99965
upperneck 13.8741 -10.3602 10.1133
head 5.72146 -4.57725 2.94524
rclavicle -4.42296e-015 -2.66371e-014
rhumerus -43.463 -31.6601 -66.0636
rradius 26.3556
rwrist 40.9353
rhand 12.3756 -35.9769
rfingers 7.12502
rthumb 37.3759 -61.9433
lclavicle -4.42296e-015 -2.66371e-014
lhumerus -47.3075 33.3119 64.6584
lradius 23.133
lwrist -27.8342
lhand -14.8019 -8.15306
lfingers 7.12502
lthumb 11.3559 21.5195
rfemur -7.33431 21.7665 23.0841
rtibia 5.12653
rfoot -13.2812 -23.9665
rtoes 1.74454
lfemur 0.502545 -46.3944 -8.89327
ltibia -3.74839
lfoot -22.9131 53.3336
ltoes 13.0743
158
root 0.0548518 17.4969 8.20429 10.2714 1.37503 -8.3267
lowerback -1.65404 1.09834 4.20779
upperback -7.54309 1.67869 1.7326
thorax -6.87579 0.640033 -0.611913
lowerneck -5.4414 -6.57699 -2.79857
upperneck 14.6069 -10.1631 9.76455
head 5.95983 -4.45855 2.80516
rclavicle -4.42296e-015 -5.1684e-015
rhumerus -43.0528 -30.8381 -67.0244
rradius 26.8066
rwrist 40.0988
rhand 12.5584 -36.1709
rfingers 7.12502
rthumb 37.5487 -62.0915
lclavicle -4.42296e-015 -5.1684e-015
lhumerus -47.099 32.9402 65.009
lradius 22.9883
lwrist -28.1859
lhand -14.7451 -7.71976
lfingers 7.12502
lthumb 11.4106 21.9498
rfemur -7.37282 21.7326 23.0786
rtibia 5.22422
rfoot -13.3547 -23.9119
rtoes 1.85751
lfemur 0.512227 -46.3102 -8.90893
ltibia -3.74301
lfoot -22.7048 53.2585
ltoes 13.0652
159
root 0.05545 17.4963 8.20673 10.24 1.34932 -8.34537
lowerback -1.6806 1.09275 4.24987
upperback -7.53582 1.67042 1.738
thorax -6.85236 0.633994 -0.628771
lowerneck -5.75497 -6.35529 -2.66906
upperneck 15.394 -9.90684 9.49113
head 6.22409 -4.30871 2.70508
rclavicle -1.49089e-014 -1.70955e-014
rhumerus -42.5661 -29.638 -68.2365
rradius 27.4187
rwrist 38.8826
rhand 12.7569 -36.4936
rfingers 7.12502
rthumb 37.7363 -62.3641
lclavicle -1.49089e-014 -1.70955e-014
lhumerus -46.8223 32.285 65.6431
lradius 23.044
lwrist -28.0916
lhand -14.5476 -7.19987
lfingers 7.12502
lthumb 11.601 22.459
rfemur -7.36339 21.7584 23.1158
rtibia 5.30449
rfoot -13.4571 -23.897
rtoes 2.08187
lfemur 0.569888 -46.1953 -8.93232
ltibia -3.74547
lfoot -22.6232 53.1678
ltoes 13.0961
160
root 0.055951 17.4966 8.20959 10.2165 1.30067 -8.32805
lowerback -1.6611 1.13377 4.29364
upperback -7.56416 1.72619 1.68926
thorax -6.88959 0.656246 -0.706786
lowerneck -6.04587 -6.14598 -2.56398
upperneck 16.1906 -9.67701 9.29803
head 6.49736 -4.16868 2.63399
rclavicle -1.95803e-014 3.33958e-014
rhumerus -42.1821 -28.345 -69.478
rradius 28.1394
rwrist 37.5146
rhand 12.9997 -36.8702
rfingers 7.12502
rthumb 37.9656 -62.6788
lclavicle -1.95803e-014 3.33958e-014
lhumerus -46.5566 31.5893 66.2798
lradius 23.2163
lwrist -27.9423
lhand -14.2169 -6.6384
lfingers 7.12502
lthumb 11.92 23.0023
rfemur -7.3402 21.7897 23.108
rtibia 5.33387
rfoot -13.4881 -23.8887
rtoes 2.07559
lfemur 0.653301 -46.1932 -9.02091
ltibia -3.74513
lfoot -22.7333 53.1881
ltoes 13.1513
161
root 0.0562881 17.4977 8.21245 10.2141 1.24185 -8.2565
lowerback -1.64214 1.1869 4.31107
upperback -7.60551 1.79665 1.61427
thorax -6.93938 0.686062 -0.798307
lowerneck -6.41101 -5.96141 -2.41237
upperneck 17.1233 -9.49974 9.10652
head 6.83173 -4.04477 2.54979
rclavicle -4.47266e-016 2.78299e-014
rhumerus -41.8605 -27.052 -70.6786
rradius 28.9434
rwrist 36.2735
rhand 13.2508 -37.3205
rfingers 7.12502
rthumb 38.2027 -63.0642
lclavicle -4.47266e-016 2.78299e-014
lhumerus -46.2291 30.6869 67.1311
lradius 23.5711
lwrist -27.3435
lhand -13.8534 -6.07662
lfingers 7.12502
lthumb 12.2705 23.5434
rfemur -7.32115 21.7762 23.0237
rtibia 5.30811
rfoot -13.4167 -23.8481
rtoes 1.71915
lfemur 0.704794 -46.2289 -9.15936
ltibia -3.72427
lfoot -22.8972 53.2406
ltoes 13.2496
162
root 0.0575908 17.4981 8.21637 10.2145 1.2108 -8.1816
lowerback -1.65485 1.21021 4.31077
upperback -7.63791 1.8263 1.57513
thorax -6.96445 0.698566 -0.84015
lowerneck -7.07539 -5.84751 -2.22163
upperneck 18.4459 -9.43876 8.77438
head 7.34903 -3.96363 2.3944
rclavicle -9.98893e-015 1.31198e-014
rhumerus -41.5762 -25.7087 -71.8014
rradius 29.7303
rwrist 35.8158
rhand 13.238 -37.2068
rfingers 7.12502
rthumb 38.1905 -62.954
lclavicle -9.98893e-015 1.31198e-014
lhumerus -45.8775 29.5251 68.2774
lradius 24.1716
lwrist -26.2572
lhand -13.6116 -5.68599
lfingers 7.12502
lthumb 12.5036 23.9199
rfemur -7.2838 21.7368 22.938
rtibia 5.27274
rfoot -13.3865 -23.7963
rtoes 1.69317
lfemur 0.738024 -46.2056 -9.2876
ltibia -3.71172
lfoot -22.9548 53.2482
ltoes 13.2082
163
root 0.0594293 17.4973 8.22069 10.1964 1.20246 -8.131
lowerback -1.66951 1.237 4.32755
upperback -7.65554 1.86089 1.54542
thorax -6.97213 0.713307 -0.881731
lowerneck -7.76055 -5.81153 -1.99623
upperneck 19.7532 -9.43484 8.18996
head 7.86226 -3.93109 2.1447
rclavicle 2.03754e-014 1.23246e-014
rhumerus -41.3953 -24.5243 -72.7241
rradius 30.2459
rwrist 36.8707
rhand 12.5263 -35.5153
rfingers 7.12502
rthumb 37.5183 -61.444
lclavicle 2.03754e-014 1.23246e-014
lhumerus -45.5271 28.0633 69.6494
lradius 25.0356
lwrist -24.9131
lhand -13.3596 -5.4475
lfingers 7.12502
lthumb 12.7466 24.1434
rfemur -7.21349 21.7092 22.8926
rtibia 5.24085
rfoot -13.4263 -23.7651
rtoes 1.98638
lfemur 0.798157 -46.1364 -9.39822
ltibia -3.72164
lfoot -22.8466 53.1952
ltoes 13.0821
